<svg viewBox="-2 -2 13 17" xmlns="http://www.w3.org/2000/svg">
    <!-- balloon - from tar1090 -->
    <path d="M3.56,12.75a.49.49,0,0,1-.46-.34L2.63,11a.51.51,0,0,1,.07-.44l.1-.1-2-3.68a.48.48,0,0,1-.05-.17,4.39,4.39,0,0,1-.48-2A4.29,4.29,0,0,1,4.5.25,4.29,4.29,0,0,1,8.75,4.58a4.39,4.39,0,0,1-.48,2,.45.45,0,0,1-.05.17l-2,3.68a.44.44,0,0,1,.1.1.51.51,0,0,1,.07.45L5.9,12.41a.49.49,0,0,1-.46.34Zm1.6-2.43L6.1,8.59A4.22,4.22,0,0,1,5,8.88v1.44ZM4,10.32V8.88A4.22,4.22,0,0,1,2.9,8.59l.94,1.73Z"
          fill="{COLOR}" stroke="#000" stroke-width="0.8"/>
</svg>
