<svg viewBox="-1 -1 34 34" xmlns="http://www.w3.org/2000/svg">
    <!-- beluga - from tar1090 -->
    <path d="M17.45 3.79c.58 1.14.5 2.68.5 2.68v5.74l1.91 1.08v-.34h-.26c-.22-1.21 0-2.62 0-2.62H21c.23 1.43 0 2.61 0 2.61h-.25l-.07.84 7.25 4.26c.28.14.25.5.25.5v1.27l-2.25-.83c-.14.95-.2-.08-.2-.08l-1.2-.44c-.13.97-.18-.06-.18-.06l-.97-.36c-.13.89-.18-.06-.18-.06l-1.43-.54c-.15.94-.22-.07-.22-.07l-.62-.24h-1.75c-.12 1.06-.2 0-.2 0h-1.03v4.13l-1.12 6.15 3.37 2.5.05-.61h.1v2.06l-3.98-1.47-.27 1.44H15.81l-.27-1.44-3.98 1.47V29.3h.1l.05.61 3.37-2.5-1.12-6.15v-4.13h-1.03s-.08 1.06-.2 0h-1.75l-.62.24s-.07 1.01-.21.07l-1.43.54s-.06.95-.18.06l-.98.36s-.05 1.03-.17.06l-1.2.44s-.07 1.03-.2.08l-2.25.83-.01-1.26s-.03-.37.25-.5l7.25-4.27-.07-.84h-.25s-.23-1.18 0-2.61h1.4s.22 1.4 0 2.62h-.26v.34l1.9-1.08V6.47s-.07-1.54.51-2.68c0 0 .91-3.34 1.5-3.23.58-.1 1.49 3.23 1.49 3.23z"
          fill="{COLOR}" stroke="#000" stroke-width="0.8"/>
</svg>
