<svg viewBox="-3.7 -3 32 32" xmlns="http://www.w3.org/2000/svg">
    <!-- blimp - from tar1090 -->
    <path d="M12.4 26.77v-.81s.71-.24 1.42-1.7c0 0 .1.14.15.17.07.02 2.02.08 2.02.08s.18 0 .17-.3v-1.45s.14-.47-1.3-1.22c0 0 5.25-19.33-2.56-21.8-7.81 2.47-2.57 21.8-2.57 21.8-1.43.75-1.3 1.22-1.3 1.22s.02 1.16 0 1.46c0 .3.18.29.18.29s1.95-.06 2.01-.08c.06-.03.15-.17.15-.17.71 1.46 1.42 1.7 1.42 1.7v.81c0 .17.11.17.11.17s.1 0 .1-.17z"
          fill="{COLOR}" stroke="#000" stroke-width="0.8"/>
</svg>
