<svg viewBox="-31.5 -7 34 34" xmlns="http://www.w3.org/2000/svg">
    <!-- c2 - from tar1090 -->
    <path d="M1169 1932 l-207 -2 -11 -45 c-12 -49 -13 -108 -2 -175 l7 -45 14 28 c13 27 15 27 74 22 34 -4 68 -9 76 -12 8 -4 39 -8 69 -9 29 -2 56 -5 58 -8 3 -3 0 -42 -6 -87 -6 -45 -11 -173 -11 -284 l0 -202 -77 -6 c-43 -4 -166 -14 -273 -22 -107 -8 -278 -21 -380 -30 -346 -28 -440 -35 -455 -35 -23 0 -48 -58 -41 -95 12 -62 19 -64 379 -116 182 -27 373 -53 422 -59 165 -19 155 -15 155 -74 1 -28 5 -70 9 -93 l8 -43 -46 0 c-25 0 -53 -4 -60 -9 -16 -10 -8 -13 71 -26 24 -4 44 -15 57 -33 l20 -27 23 28 c16 19 36 29 63 33 22 3 51 8 64 10 39 8 5 24 -53 24 l-48 0 6 33 c4 17 10 54 13 81 l6 48 64 -5 c35 -2 66 -7 68 -9 3 -2 11 -101 19 -219 20 -304 49 -412 121 -446 33 -16 37 -16 70 0 72 34 101 142 121 446 8 118 16 217 19 219 2 2 33 7 68 9 l64 5 6 -48 c3 -27 9 -64 13 -81 l7 -33 -49 0 c-58 0 -92 -16 -53 -24 13 -2 42 -7 64 -10 27 -4 47 -14 63 -33 l23 -28 20 27 c13 18 33 29 57 33 79 13 87 16 71 26 -7 5 -35 9 -60 9 l-46 0 8 43 c4 23 8 65 9 93 0 59 -10 55 155 74 50 6 240 32 422 59 360 52 367 54 379 116 7 37 -18 95 -41 95 -15 0 -109 7 -455 35 -102 9 -273 22 -380 30 -107 8 -230 18 -272 22 l-78 6 0 128 0 127 34 12 c31 10 46 26 46 51 0 14 -20 11 -36 -6 -31 -30 -44 -18 -44 38 0 30 -5 91 -11 136 -6 45 -9 84 -6 87 2 3 29 6 58 8 30 1 61 5 69 9 8 3 42 8 76 12 59 5 61 5 74 -22 14 -27 14 -26 24 47 6 52 6 91 -2 129 -6 29 -13 55 -14 56 -5 5 -464 10 -669 7z"
          fill="{COLOR}" stroke="#000" stroke-width="0.8"/>
</svg>
