<svg viewBox="-1 -2 34 34" xmlns="http://www.w3.org/2000/svg">
    <!-- dauphin - from tar1090 -->
    <path d="M15.71 30.45v-.37s-.34 0-.37-.51l-.08-4.33-.05-.39h-2.77l.12 1.07-.28-.2-.32-2.98.3.18.02.3h2.83l-1.18-8.96-7.2 7.16-.45.07-.36-.39.11-.5 7.78-7.56s-.26-1.6-.29-3.71L5.9 1.6l-.04-.4.36-.34.49.08 6.88 7.04s-.11-2.01 1.05-4.8c0 0 .19-.47.38-1.14 0 0 .08-1 .99-1.05 0 0 .91-.12 1.07 1.03 0 0 .09.44.38 1.18 0 0 .82 1.33 1.12 4.96l7.25-7.2.4-.02.37.38-.1.48-7.94 7.72s0 2.02-.26 3.2c0 0 .2.1.39.04l7.96 8.03.02.42-.35.32-.47-.07-7.7-7.9-1.53 9.66h2.62l-.01-.46.25.17.33 2.96-.29-.2-.08-.87-3.03.02s-.06.23-.06.56l-.2 4.03s.04.46-.31.64v.36z"
          fill="{COLOR}" stroke="#000" stroke-width="0.8"/>
</svg>
