<svg viewBox="-2 -2 74.5 74.5" xmlns="http://www.w3.org/2000/svg">
    <!-- e737 - from tar1090 -->
    <path d="M34.89 67.926c-1.458.367-14.152 2.859-14.152 2.859l-.069-2.436 12.769-7.019c-1.535-6.778-1.875-8.756-2.061-14.716l-.016-9.017-4.68.026c.014.786-.128 1.422-.429 2.124-.418-.666-.401-1.321-.397-2.1-.793-.001-1.561.197-2.352.329.023.836-.096 1.488-.437 2.157-.347-.636-.352-1.137-.402-1.972l-5.735 1.324c-.008.857.04 1.345-.392 2.119-.372-.631-.411-1.258-.41-1.963L1.794 42.794c-1.953.524-1.762.769-1.765-1.705 0-.521.117-.752.594-.977 7.89-4.004 16.21-7.251 23.891-11.472-.1-.702-.567-.221-.736-.494-.312-2.068-.343-4.905-.118-6.453.04-.223.102-.457.299-.456 1.586.008 1.912-.042 3.259-.013.197.004.294.209.331.428.162 1.382.191 3.489.074 4.848l3.736-3.087c-.013-2.248-.028-5.838.075-7.6.271-6.08 1.853-15.343 3.858-15.786 2.004.443 3.586 9.706 3.858 15.785.103 1.762.088 5.352.075 7.6l3.736 3.087c-.116-1.358-.087-3.465.074-4.848.037-.219.133-.424.331-.428 1.348-.029 1.674.021 3.259.013.197-.001.259.232.299.456.226 1.548.194 4.385-.118 6.453-.169.273-.636-.207-.736.494C53.75 32.86 62.07 36.108 69.96 40.111c.478.225.595.456.594.977.044 2.197.194 2.108-1.765 1.705l-14.335-3.152c.001.705-.037 1.332-.41 1.963-.431-.774-.384-1.263-.392-2.119l-5.735-1.324c-.049.836-.055 1.336-.402 1.972-.341-.669-.46-1.322-.437-2.157-.791-.132-1.559-.33-2.352-.329.004.779.021 1.434-.397 2.1-.301-.702-.443-1.338-.429-2.124l-4.68-.026-.016 9.017c-.186 5.959-.526 7.938-2.061 14.716l12.769 7.019-.069 2.436-14.152-2.859c-.097.415-.089 1.303-.402 1.291-.312.012-.304-.876-.402-1.291z"
          fill="{COLOR}" stroke="#000" stroke-width="0.8"/>
</svg>
