<svg viewBox="-3.5 -3 32 32" xmlns="http://www.w3.org/2000/svg">
    <!-- f5_tiger - from tar1090 -->
    <path d="M9.77 14.6s-.03-.78.16-1.74l.59-.98.05-.65.8-.72V7.17s-.05-1.28.15-3c0 0 .03-1.33.7-3.36v-1.2h.1V.83s.48 1.15.7 3.37c0 0 .17 1.15.14 3.02l.01 3.32.77.7.08.67.6 1s.14.69.14 1.7l2.47 1.35 2.24 1.22.03-1.82h-.1v-.14h.1l.01-.3s.01-.13.17-.14v-.4s.1-.28.23 0v.68l.1.16h.16v.14h-.26v3.18l.2.23v.68h-.63v-.75l-5.77.57s.06 1.08-.08 2.6l2.5 1.57-.02.94-2.75.17-.2 1.68h-1.8l-.2-1.68-2.77-.17v-.94l2.5-1.58s-.12-1.1-.09-2.62l-5.74-.55v.76H4.4v-.67l.23-.25v-3.15h-.27v-.17h.13l.13-.14v-.73s.1-.17.22 0v.46h.1s.07.02.07.12v.3h.13v.15h-.1v1.82l2.32-1.27z"
          fill="{COLOR}" stroke="#000" stroke-width="0.8"/>
</svg>
