<svg viewBox="-5.8 -10 76 76" xmlns="http://www.w3.org/2000/svg">
    <!-- glider - from tar1090 -->
    <path d="m 32.000,45.932 -0.215,0.314 c -0.118,0.173 -0.196,0.239 -0.378,0.401 -0.226,0.145 -0.850,-0.045 -1.196,-0.137 -0.658,-0.204 -1.909,-0.478 -2.984,-0.718 -0.065,-0.021 -0.186,-0.136 -0.406,-0.344 -0.342,-0.323 -0.409,-0.463 -0.459,-0.961 -0.074,-0.730 0.183,-1.127 0.795,-1.228 0.218,-0.036 0.732,-0.130 1.143,-0.210 0.411,-0.080 1.132,-0.201 1.602,-0.271 1.252,-0.185 1.635,-0.299 1.701,-0.507 0.059,-0.186 -0.006,-2.549 -0.101,-3.654 -0.110,-2.092 -0.181,-3.601 -0.281,-5.738 0.039,-0.214 -0.274,-0.732 -0.553,-0.915 l -5.180,-0.560 c -0.611,-0.069 -3.989,-0.350 -5.732,-0.476 -1.476,-0.108 -2.940,-0.246 -4.432,-0.362 l -3.097,-0.439 C 7.935,29.593 4.497,29.014 2.499e-5,28.410 l 0.019,-2.401 5.562,-0.286 c 2.699,-0.023 6.207,-0.092 9.264,-0.183 0.646,-0.019 4.548,-0.040 8.671,-0.047 l 7.496,-0.012 -0.017,-2.376 c -0.007,-1.423 -0.104,-3.049 0.253,-4.827 0.028,-0.088 0.121,-0.396 0.344,-0.722 0.071,-0.090 0.213,-0.175 0.408,-0.255 0.195,0.080 0.337,0.165 0.408,0.255 0.223,0.325 0.316,0.633 0.343,0.722 0.357,1.778 0.261,3.405 0.253,4.827 l -0.016,2.376 7.496,0.012 c 4.123,0.007 8.025,0.028 8.671,0.047 3.057,0.091 6.564,0.160 9.264,0.183 l 5.562,0.286 0.019,2.401 c -4.497,0.605 -7.935,1.183 -12.228,1.717 l -3.097,0.439 c -1.492,0.116 -2.956,0.254 -4.432,0.362 -1.743,0.127 -5.121,0.408 -5.732,0.476 l -5.180,0.560 c -0.278,0.182 -0.592,0.701 -0.553,0.915 -0.100,2.136 -0.171,3.646 -0.281,5.738 -0.095,1.105 -0.160,3.468 -0.101,3.654 0.066,0.208 0.449,0.322 1.701,0.507 0.470,0.069 1.191,0.191 1.602,0.271 0.411,0.080 0.926,0.174 1.143,0.210 0.612,0.101 0.870,0.498 0.795,1.228 -0.051,0.499 -0.118,0.638 -0.460,0.961 -0.220,0.208 -0.341,0.323 -0.406,0.344 -1.075,0.240 -2.326,0.513 -2.984,0.718 -0.346,0.091 -0.970,0.282 -1.196,0.137 -0.182,-0.162 -0.260,-0.228 -0.378,-0.401 z"
          fill="{COLOR}" stroke="#000" stroke-width="0.8"/>
</svg>
