<svg viewBox="-3.8 -4 34 34" xmlns="http://www.w3.org/2000/svg">
    <path d="M16.9 21s.2 0 .2.3v.7s0 .3-.2.2l-3.7.5s0 1-.2.8c0 0-.2.2-.2-.8l-3.6-.5s-.2 0-.2-.4v-.6s0-.2.3-.3l3-.5V16l-2.4-.2s-.1.8-.5.8c0 0-.5 0-.5-1l-4.3-.3s-.1.5-.2 0l-7-.6v-1.2L9 12.1s-.2-2.5.4-2.5c0 0 .6-.2.5 2.3l2.3-.3s-.4-1.6-.1-2h.5V6.4s0-2.4.6-2.5c0 0 .5 0 .6 2.5v3.2h.5s.3.3 0 2l2.2.4v-1.5s0-.8.4-1c0 0 .6 0 .5 1v1.6l11.5 1.5v1.2l-7 .6s0 .6-.2 0l-4.4.5s0 1-.4.9c0 0-.3 0-.4-.9l-2.6.3v4.2z"
          fill="{COLOR}" stroke="#000" stroke-width="0.5"/>
</svg>
