<svg viewBox="-5.2 -4 34 34" xmlns="http://www.w3.org/2000/svg">
    <!-- hunter - from tar1090 -->
    <path d="M12.42 27.46l.17-.64 2.35 1.3h.32s.17-1.51-.23-2.22L13 23.52s.22-3.83.17-6.81l.7-.96 8.27 3.92s.45-3.2-.47-4.48l-7.12-6.96-.09.07-1.25-.93s-.01-1.97-.16-3.8c0 0-.34-4-1.2-4.37-.87.37-1.21 4.38-1.21 4.38-.15 1.82-.16 3.79-.16 3.79l-1.25.93-.1-.07-7.11 6.96c-.92 1.29-.47 4.48-.47 4.48l8.28-3.92.69.96c-.05 2.98.17 6.81.17 6.81L8.64 25.9c-.4.7-.23 2.22-.23 2.22h.32l2.35-1.3.17.64h.58z"
          fill="{COLOR}" stroke="#000" stroke-width="0.8"/>
</svg>
