<svg viewBox="0.2 0 32 32" xmlns="http://www.w3.org/2000/svg">
    <!-- lancaster - from tar1090 -->
    <path d="M15.74 9.17c-.34.55-.34 1.44-.34 1.44v3.34h-2.06c.3-1.34-.1-1.73-.1-1.73v-.3c.63.11 1.2-.1 1.2-.1-.74-.13-1.22-.05-1.22-.05-.37-.84-.7 0-.7 0-.52-.09-1.23.11-1.23.11.84.16 1.19.04 1.19.04v.3c-.38.56-.09 1.72-.09 1.72h-.41l-2.62.35c.26-.93-.1-1.52-.1-1.52v-.3c1 .07 1.19-.1 1.19-.1-.42-.14-1.2-.06-1.2-.06-.36-.82-.7 0-.7 0-.12-.07-1.48.02-1.24.12.24.1 1.2.06 1.2.06v.32c-.43.9-.05 1.56-.05 1.56l-5.92.77c-.13.03-.99.21-.97 1.08.02.87.99 1.12.99 1.12l9.3.98 3.5.01.14 6.62-4 .15c-.24.8 0 1.58 0 1.58l.06-.33c.03.42.37.41.37.41l3.56.4c0 .7.29.87.29.87h.79s.28-.18.28-.86l3.57-.4s.33 0 .37-.42l.06.33s.24-.79 0-1.58l-4-.15.13-6.62 3.5-.01 9.3-.98s.98-.25 1-1.12c.01-.87-.85-1.05-.97-1.08l-5.93-.77s.38-.66-.04-1.56v-.32s.95.04 1.2-.06c.24-.1-1.13-.2-1.24-.12 0 0-.35-.82-.7 0 0 0-.78-.08-1.2.07 0 0 .18.16 1.18.09v.3s-.36.6-.1 1.52l-2.62-.35h-.41s.3-1.16-.08-1.72v-.3s.34.12 1.18-.04c0 0-.7-.2-1.23-.1 0 0-.33-.85-.7 0 0 0-.48-.09-1.2.04 0 0 .55.21 1.19.1v.3s-.4.39-.1 1.73h-2.06V10.6s0-.9-.35-1.44c0 0 .01-.36-.43-.36s-.43.36-.43.36z"
          fill="{COLOR}" stroke="#000" stroke-width="0.8"/>
</svg>
