<svg viewBox="-4 -3 32 32" xmlns="http://www.w3.org/2000/svg">
    <!-- m326 - from tar1090 -->
    <path d="M12.39 26.43s.42-.35.6-.88h4s.26.07.28-.4l.04-1.26s.05-.57-.38-.66l-3.71-.7s.24-3.58.3-6.71c0 0-.02-.55.26-.56l10.9.02s.5.02.51.42c0 0 .25 4.06.54 0 0 0 .33-3.39.17-4.98 0 0-.4-4-.84 0l-.04.54-.01.2s.02.31-.35.22l-9.63-1.96s-.33.03-.37-.38c-.04-.4-.03-.65-.47-.65-.44 0-.5-.01-.62.12 0 0 .02-4.06-.47-6.9 0 0-.46-2.46-.96-2.38-.49-.08-.95 2.39-.95 2.39-.49 2.83-.47 6.89-.47 6.89-.11-.13-.18-.12-.62-.12s-.43.25-.47.65c-.04.4-.37.38-.37.38l-9.63 1.96c-.37.1-.35-.22-.35-.22l-.01-.2-.04-.54c-.44-4-.84 0-.84 0-.16 1.6.17 4.98.17 4.98.3 4.06.54 0 .54 0 .02-.4.5-.42.5-.42l10.91-.02c.28 0 .27.56.27.56.05 3.13.3 6.71.3 6.71l-3.72.7c-.43.09-.38.66-.38.66l.04 1.25c.02.48.27.41.27.41h4c.2.53.61.88.61.88h.24z"
          fill="{COLOR}" stroke="#000" stroke-width="0.8"/>
</svg>
