<svg viewBox="-4 -3 32 32" xmlns="http://www.w3.org/2000/svg">
    <!-- md_f15 - from tar1090 -->
    <path d="M12.37 22.55s-.04.25.35 1.02v.32h.94v-.31s.28-.44.35-.95v1.08l.65 1.66 3.05.7s.95-1.14.49-1.48l-2.13-2.5-.01.59-1.02-1.2s.1-.64.09-1.6h2.72l2.6.53.92-1.54s.21-.68-.3-1L15.1 12s-.24-1.97-.78-3.5c0 0 .04-.76-.11-1.91h-1.12s.17-5.5-.82-7.72c-1 2.22-.83 7.72-.83 7.72h-1.11c-.16 1.15-.12 1.9-.12 1.9-.54 1.54-.77 3.5-.77 3.5l-6 5.88c-.5.32-.29 1-.29 1l.93 1.54 2.59-.54h2.73c-.03.97.09 1.61.09 1.61l-1.02 1.2-.01-.59-2.14 2.5c-.46.34.49 1.47.49 1.47l3.05-.69.65-1.66v-1.08c.07.5.35.95.35.95v.3h.95v-.31c.38-.77.35-1.02.35-1.02h.1z"
          fill="{COLOR}" stroke="#000" stroke-width="0.8"/>
</svg>
