<svg viewBox="-1 -2 34 34" xmlns="http://www.w3.org/2000/svg">
    <!-- mil24 - from tar1090 -->
    <path d="M16.41 30.41s-.11-.27-.2-.7l-.72-.2V29h-.15s.02.16-.09.18v1.28h-.1v-1.32s-.75-.34 0-.8V27.2h.08l.02 1.13s.11.14.12.32h.1l.56-.17-.24-1.43-1.94-.23s-.35-.54-.02-.84l1.85-.15-.28-7.1-.05-.04-1.46 6.71s-.92.21-.75-.16l1.8-8.3-.16-.96s-.2-.14-.14-.53l-1.02-.1s-.13 1.15-.28-.04l-.6-.05s-.16 1.3-.33-.03l-.76-.12v.38l.07.15v.15l-.07.11h-.17l-.08-.1v-.17l.04-.14v-.39l-.4-.03-.07-.14-.3-.08v.92s-.13.25-.28 0l.03-1.97-7 .68s-.46-.76-.07-.77l10.6-1.03v-.27l.07-.07v-.12l-.04-.03s.04-.99.29-1.07l.38.02v-.54L10.5 1.2s.68-.65.74-.3l3.45 7.8s-.03-4.6 1.12-4.67V2.44h.2v1.59s1.1-.35 1.14 4.96c0 0 .13.41.04 2.13l8.14-7.4s.81.35.52.56l-7.87 7.18s.14.38.1.72l-.02.06v.11l.04.04s.1.49-.04.88l.64.38.48.05s.08-.7.26.04l.52.07-.04-.83h.22l.03.86.52.05h.23l-.04-.96h.24l.06 1.08.07.06.03.2.05.03.01.27-.06.01.05.64 6.15 3.62s-.13.8-.4.68l-6.72-3.98v.33h-.3v-.48l-.38-.22-.22.03s-.1 1.4-.3.03l-.56.06s-.18 1.16-.31.05l-1.02.12s.07.27-.15.57c0 0-.12 1.17-.54 2.79l-.1 6.98 1.85.1s.45.33-.01.85l-1.85.3-.01 1.6s.33.17 0 .41z"
          fill="{COLOR}" stroke="#000" stroke-width="0.8"/>
</svg>
