<svg viewBox="-4 -2 32 32" xmlns="http://www.w3.org/2000/svg">
    <!-- miragef1 - from tar1090 -->
    <path d="M11.98.32c-.93 3.65-.5 8.62-.5 8.62h0l-.32.74c-.2-.03-.5.02-.5.02-.33 1.62-.21 3.21-.21 3.21l-6 6.47v2.56l6.35-1.84c-.04 1.33.01 2.38.01 2.38l-3.08 3.56c-.33.35-.26.6-.26.6l.37 1.2 3.5-.78v.28h1.74v-.28l3.49.79.37-1.22s.07-.24-.27-.59l-3.07-3.56s.05-1.05 0-2.38l6.35 1.84v-2.56l-5.99-6.47s.11-1.6-.2-3.2c0 0-.32-.06-.51-.03l-.33-.74s.4-4.98-.53-8.63c-.22-.97-.4.01-.4.01z"
          fill="{COLOR}" stroke="#000" stroke-width="0.8"/>
</svg>
