<svg viewBox="-35 -35 1250 1460" xmlns="http://www.w3.org/2000/svg">
    <!-- p3_orion - from tar1090 -->
    <path d="M580 1349 c0 -22 -5 -70 -11 -107 -11 -67 -12 -68 -50 -80 -21 -7 -56 -13 -76 -13 -74 -3 -98 -12 -98 -39 0 -22 9 -28 90 -56 l90 -31 -4 -189 c-1 -104 -4 -190 -5 -191 -3 -3 -175 -39 -331 -69 -163 -31 -185 -41 -185 -87 0 -51 13 -57 121 -57 l97 0 4 -35 c4 -34 3 -35 -32 -37 l-35 -1 34 -4 c19 -3 40 -12 47 -20 10 -15 12 -15 20 -1 5 9 23 18 39 21 l30 4 -30 2 c-29 1 -31 3 -27 36 l4 35 53 0 c51 0 53 -1 59 -31 9 -47 8 -49 -26 -50 l-33 -2 30 -4 c17 -2 36 -12 43 -21 11 -15 13 -15 25 0 6 9 23 19 37 21 24 4 23 4 -4 6 -21 1 -27 5 -22 17 3 9 6 24 6 35 0 15 7 19 39 19 l39 0 4 -157 c3 -145 5 -162 28 -208 14 -27 32 -50 40 -50 8 0 26 23 40 50 23 46 25 63 28 208 l4 157 39 0 c32 0 39 -4 39 -19 0 -11 3 -26 6 -35 5 -12 -1 -16 -22 -17 -27 -2 -28 -2 -4 -6 14 -2 31 -12 38 -21 11 -15 13 -15 25 0 6 9 26 19 42 21 30 4 30 4 -4 6 -32 1 -33 2 -27 32 3 17 6 35 6 40 0 5 24 9 54 9 l54 0 4 -35 c4 -33 2 -35 -27 -36 l-30 -2 30 -4 c16 -3 34 -12 41 -21 10 -14 12 -14 20 1 5 8 25 17 44 20 l35 4 -35 1 c-35 2 -36 3 -32 37 l4 35 97 0 c108 0 121 6 121 57 0 46 -22 56 -185 87 -156 30 -328 66 -331 69 -1 1 -4 87 -5 191 l-4 189 90 31 c81 28 90 34 90 56 0 27 -24 36 -98 39 -20 0 -55 6 -76 13 -38 12 -39 13 -50 80 -6 37 -11 85 -11 107 0 23 -4 41 -10 41 -5 0 -10 -18 -10 -41z"
          fill="{COLOR}" stroke="#000" stroke-width="0.8"/>
</svg>
