<svg viewBox="-4 -3 32 32" xmlns="http://www.w3.org/2000/svg">
    <!-- pumpkin - from tar1090 -->
    <path d="M12.33 20.61s.43.02.65-.28c0 0 .68.5 1.72-.31 0 0 .94.37 2-1.32 1.04-1.7.58-3.44.58-3.44s.99-.8 2.1.33c0 0 .81-1.95 3.02-.29 0 0 .36-2.2 2.93-.62 0 0-.89-2.47-4.12-2.7-3.23-.23-4.3 2.32-4.3 2.32s-.12-.47-.64-1.12c0 0 1.54-.16.84-.64 0 0-1.04-.97-2.24-1.37 0 0 .06-1.01-.73-2.52 0 0 .5-.38.93-1.64 0 0 .83-.05 1.67-.47 0 0-1.67-1.06-3.27-.58-1.6.48-2.27 1.18-2.76 2.68 0 0-1.33.83-1.8 2.76 0 0-2.8 1.45-1.67 1.63 0 0 1.09.17.94.35 0 0-.42.46-.6.85 0 0-1.36-1.94-3.06-2.1 0 0-3.88-.71-5.4 2.64 0 0 2.64-1.6 2.95.6 0 0 1.97-1.85 3 .34 0 0 1.37-1.4 2.16-.36 0 0-.57 1.47.21 3.02.78 1.55 1.95 2.1 2.36 1.83 0 0 1.16.67 1.7.17 0 0 .3.25.83.24z"
          fill="{COLOR}" stroke="#000" stroke-width="0.8"/>
</svg>
