<svg viewBox="-2.8 -1 30 30" xmlns="http://www.w3.org/2000/svg">
    <!-- rutan_veze - from tar1090 -->
    <path d="M14.4 15.66l-1.16 1.13-.63.07-.01.18 1.87.1-1.87.08s-.09.53-.34.62c0 0-.25-.1-.35-.6l-1.85-.03 1.83-.17v-.2l-.58-.07-1.26-1.06-6.55 1.9L3 19s-.1-.61.21-1.9l-.32-.12v-.18l7.12-3.62 1.42-2.88s0-1.9.08-2.5l-4.02.03s-.18-.97.3-1l3.9-.03s.25-.9.5-1c0 0 .12-.13.58.98l3.79-.05s.4.05.26.98l-3.8.04s.1 1.18.03 2.59l1.4 2.74 7.32 3.43v.22l-.22.07s.35 1.69.14 1.8l-.4-1.25z"
          fill="{COLOR}" stroke="#000" stroke-width="0.8"/>
</svg>
