<svg viewBox="0 0 32 32" xmlns="http://www.w3.org/2000/svg">
    <!-- s61 - from tar1090 -->
    <path d="M11.16.91l-.9.54 4.9 10.19v.24h-.72v-.15c-.02-.53-.82-.74-1 0-.22.8-.16 1.42-.04 2L2.9 14.96 3.14 16l10.48-1.3.02.07c.06.3.15.45.24.62.11.11.24.16.38-.05.04-.14.07-.3.1-.49h.8l-.03 4.42c.04.33.09.6.14.84l-1.5 6.95.92.14 1.05-5.62.18.4.46 8.84c-.01.2.18.18.24.05v-.13l2.75-.24c.2-.01.2-.12.26-.18l-.03-.99-2.84-.2.48-7.09c.33-.73.67-1.64.92-2.69V14.9l10.38 5.95L29 20l-9.34-5.28.01-.04c.18-.9.54-1.76.2-3.05a.8.8 0 00-.1-.24l7.36-6.96-.75-.64-8.24 7.77V8.82l-.05-.36-.19-.63c-.1-.27-.44-.6-.82-.77h-.92c-.4.17-.7.44-.8.71-.18.31-.13.5-.2.74v.95L11.16.91z"
          fill="{COLOR}" stroke="#000" stroke-width="0.8"/>
</svg>
