<svg viewBox="-1 -1 34 34" xmlns="http://www.w3.org/2000/svg">
    <!-- super_guppy - from tar1090 -->
    <path d="M15.16 3.9c-2 2.63-1.98 3.52-1.98 3.52l-.01.71-.06 3.61-.9.06c.02-.97-.15-2.08-.15-2.08h.89V9.6h-.92c-.2-.66-.39 0-.39 0h-1.23v.1h1.22c-.2 1.13-.2 2.17-.2 2.17L9.48 12c.03-1.13-.15-2.13-.15-2.13h1.21v-.1H9.3c-.22-.74-.4 0-.4 0H7.65v.1h1.22c-.18.73-.18 2.19-.18 2.19l-6.82.5c-.65.22-.44 1.1-.44 1.1.25.56.84.53.84.53l4.65.02c.16.2.49.2.49.2l5.67-.02c-.12.9.24 2.77.24 2.77l1.96 10.43-4 .43c-.2.01-.26.2-.26.2s-.04.26.01.48c.05.22.27.22.27.22l4.33.6c.12.85.3.78.3.78s.2.07.3-.78l4.34-.6s.22 0 .27-.22c.05-.22 0-.49 0-.49s-.06-.18-.25-.19l-4-.43 1.96-10.43s.35-1.87.24-2.77l5.67.02s.33 0 .5-.2l4.64-.02s.6.03.84-.53c0 0 .21-.88-.44-1.1l-6.82-.5s0-1.46-.18-2.19h1.22v-.1H23s-.2-.74-.42 0h-1.22v.1h1.21s-.18 1-.15 2.13l-1.97-.14s.02-1.04-.19-2.18h1.22V9.6h-1.23s-.19-.66-.4 0h-.9v.12h.88s-.17 1.11-.15 2.08l-.9-.06-.06-3.61v-.7s.01-.9-1.99-3.53c0 0 .16-.84-.79-.97-.94.13-.78.97-.78.97z"
          fill="{COLOR}" stroke="#000" stroke-width="0.8"/>
</svg>
