<svg viewBox="-1 -2 34 34" xmlns="http://www.w3.org/2000/svg">
    <!-- tiger - from tar1090 -->
    <path d="M13.09 29.05l-.34.02-.7-3.13.3-.01.09.34 3.13-.03-.46-7.45-.09-.16s-.27.1-.3-.66c-.05-.77.01-.84.01-.84s-.24-1.91-.18-2.26c0 0-.03-.1.16-.16 0 0-.4-.3-.44-1.4 0 0-.08 0-.1-.26l-.72.31s-.12.23-.12.45L4.8 17.6s-.56.2-.93.61c0 0-.7-.97.51-1.62l8.46-3.77s.38-.14.83-.18l.48-.26H13.1s-.13.53-.24 0h-.92s-.2.67-.39 0h-.17l.03-1.85h.13s.17-.75.41-.06l2.64-.37-.4-.87-.34-.12v.23s-.3.22-.56 0v-1.3L9.75.3s-.18-.4-.49-.65c0 0 .95-.64 1.68.58L14 7s.04-.3.3-.3h.42V5.62s-.6-.2 0-.44c0 0-.11-1.94.4-3.02v-.63l.42-.44s.37-.38.81 0l.4.44v.63s.56.65.44 4.56c0 0 .82-.23.78.75v.36h-.39l.41.72h.11v-.37s.24-.25.53 0v1.13s-.25.28-.53 0v-.3l-.13-.13h-.1l-.52-1.05h-.17v.63s.6.22 0 .46v1.18l.69.1s.11-.01.35-.2h.14s.12-.3.12-.43l8.92-4.04s.25-.04.64-.48c0 0 .7 1.03-.67 1.72L19.3 10.4l.68.1s.24-.7.4.07h.13v1.8h-.17s-.1.75-.39 0h-.87s-.1.61-.28 0h-1.05v.72s.03.14-.11.24c0 0 .01.43-.08.6l.1.21s.13.1.37.1L22.02 23s.22.5.52.66c0 0-1.03.78-1.77-.7l-3.42-7.55s.05 1.16-.17 1.69c0 0 .09 1.74-.3 1.56l-.1.18-.43 7.4h.68l.05-.9.15.02-.06.87h2.36l-.09-.29h.36l.83 3.11-.36.02-.43-1.7h-2.76s.12.39-.1.94l-.19 1.86-.14-.03.17-1.85-.03-.42h-.13l-.04.84h-.54v.88h-.14s-.23-.54-.3-1.18l-.68-.25v-.8l-2.26-.02z"
          fill="{COLOR}" stroke="#000" stroke-width="0.8"/>
</svg>
