<svg viewBox="0 0 32 32" xmlns="http://www.w3.org/2000/svg">
    <!-- wb57 - from tar1090 -->
    <path d="M16.2 25.02h.98v-.08l1.78-.01s.24-.02.22-.43c0 0 .02-.53-.36-.74l-2.37-1.07.28-3.22h1.48v.09h.07l.12.92h.19l.28-1.02 1.21-.13 10.16-1.34s.06-1.86-1.38-2.25l-9.74-1.54v-1.53s.06-.41-.33-.42h-.43s-.34-.04-.35.35v1.55h-1.32v-1.6L16.26 9s-.1-.33-.33-.33-.34.33-.34.33l-.42 3.54v1.61h-1.32V12.6c-.01-.39-.36-.35-.36-.35h-.42c-.4 0-.34.42-.34.42v1.53L3 15.74c-1.44.39-1.38 2.25-1.38 2.25l10.16 1.34 1.21.13.28 1.06.2-.01.11-.95h.07v-.1h1.48l.29 3.23-2.38 1.07c-.38.2-.36.74-.36.74-.02.4.22.43.22.43h1.78v.1h.99c.01.37.27.35.27.35s.25.02.26-.36z"
          fill="{COLOR}" stroke="#000" stroke-width="0.8"/>
</svg>
