<svg viewBox="0 0 32 32" xmlns="http://www.w3.org/2000/svg">
    <!-- witchr - from tar1090 -->
    <path d="M8.55 15.85s.54-.33.86-.37a5.06 5.06 0 011.53.07c.1.1.52.1.27.5-.24.4-1.35 1.12-1.34 1.81l.11.43-.12.3s-.03.16-.3-.04c-.28-.2-.6 0-.6 0s-.02.13.14.38c.16.24.14.2-.1.72-.25.53-.42.2-.77-.02-.35-.21-.23.9.34 1.21 0 0 1.02.08-.01.36 0 0-.9.16-2.1.2 0 0-.8 0-.83.36l3.3-.08s.3-.04.3.13c0 0-.08.45.45 1.42 0 0 .13.13.61 1.08 0 0 .3.6 1.36.14l1.33-.59s.65-.39.9-1.16c0 0-2.3 1.21-2.24.04l.1-1s-.03-.52 1.23-.6c0 0 .43-.12 2.37-.3 0 0-1.55-.14-3.49 0 0 0 2.56-.3 3.28-.24.72.05 1.61-.02 2.08-.37 0 0 1.29-1.15 2.13-1.23 0 0-.13-.4-.72-.23-.6.18-1.6.99-1.6.99s-.54.4-2.3.38c0 0 1.27-.04 1.76-.37.48-.33.7-.72 1.48-1.16.8-.44 1.47-.13 1.67.16.21.3.87 1.51 1.2 1.45 0 0-.73-1.6-1.2-2.03-.46-.44-.99-.68-1.65-.28-.65.4-1.15.97-2.42 1.2-1.27.24-1.45.17-1.45.17s.44-.13.87-.46c.43-.32 1-.74 1.18-.93.18-.18 1.4-1.05 2.14-1 .75.04.99-.05 1.84 1.3.85 1.36.96 1.7 2.1 1.6 1.14-.1 2.77-.68 3.58-.73.81-.05 1.59-.26 2.57 1.27 0 0 .33-1-.8-1.63-1.14-.62-3.6-.06-4.6-.2-.98-.13-1.34-.34-2.17-1.5-.82-1.16-1.79-1.42-3.33-1.5 0 0 .9-.52 1-1.02.1-.5-.16-1.05-.16-1.05s-.26-.4.29-.44c.55-.05.63-.07.63-.07l.5.26.73-.04s1.44.95 3.24.3c1.8-.63 1-1.25 4-.98 0 0 .02-.37-1.79-.39 0 0 .63-.36 2.75.3 0 0 .03-1.27-3.54-1.44 0 0 1.3-.7 3.08.52 0 0-.06-.98-1.2-1.28-1.15-.3-2.34-.86-4.9-.04 0 0 .9-.86 3.39-.51 0 0-1.1-.92-3.4-.48-2.3.43-2.7 2.32-2.7 2.32s-.2.19-.42.23c-.21.05-.21.5-.21.5s.18.24-.44.31c-.62.08-.4-.37-.5-.42 0 0-.65-2.14 4.42-3.67 0 0-3.31-.72-6.31 2.92 0 0-.37-.77.43-1.18.8-.41 1.44-.72 1.37-3.12 0 0-.86 1.75-2.41 2.14 0 0-.68.14-1.63 1.17 0 0-.74-1.04 1.24-2.96 0 0-2.73.65-3.8 3 0 0-.53 1.11-.78 2.85 0 0-.03.92-.37.97 0 0-.56.12-.64-.71 0 0-.4-1.07.61-3.3 0 0-.74.48-1.57 1.92 0 0-.58 1.05-.45 1.86 0 0 .27.5.1.6 0 0-.26-.19-.66.1l-.48.27-5.23 1.18s-.63.42.15.47l4.7-1.12.46-.04.28.27.47.04-.03.22s-.13.5.84-.11z"
          fill="{COLOR}" stroke="#000" stroke-width="0.8"/>
</svg>
