<svg viewBox="0 0 32 32" xmlns="http://www.w3.org/2000/svg">
    <!-- witchl - from tar1090 -->
    <path d="M9.06 15.51s.55.33.86.37c.32.04 1.43.03 1.53-.07.1-.1.53-.1.28-.5s-1.35-1.12-1.34-1.81l.1-.43-.11-.3s-.04-.16-.31.04c-.28.2-.59 0-.59 0s-.03-.13.14-.38c.16-.24.14-.2-.1-.73-.25-.52-.43-.19-.78.02-.34.22-.22-.9.34-1.2 0 0 1.03-.08 0-.36 0 0-.91-.16-2.11-.21 0 0-.79.01-.82-.35l3.3.08s.3.03.3-.13c0 0-.08-.45.44-1.43 0 0 .13-.12.62-1.07 0 0 .3-.6 1.36-.14l1.32.59s.66.39.9 1.16c0 0-2.3-1.21-2.23-.04l.1 1s-.04.52 1.22.6c0 0 .43.12 2.37.3 0 0-1.55.14-3.48 0 0 0 2.56.3 3.28.24.72-.05 1.6.02 2.08.37 0 0 1.28 1.15 2.12 1.23 0 0-.12.4-.71.23-.6-.18-1.6-.99-1.6-.99s-.55-.4-2.3-.38c0 0 1.27.04 1.75.37s.7.72 1.49 1.16c.79.44 1.47.13 1.67-.16.2-.3.86-1.51 1.2-1.45 0 0-.74 1.59-1.2 2.03-.46.44-1 .68-1.65.28-.66-.4-1.15-.97-2.42-1.2-1.27-.24-1.46-.17-1.46-.17s.44.13.87.46c.43.32 1 .74 1.18.93.19.18 1.4 1.04 2.15 1 .75-.04.98.04 1.83-1.3.85-1.36.97-1.7 2.1-1.6 1.14.1 2.78.68 3.59.73.8.05 1.59.26 2.57-1.27 0 0 .33 1-.81 1.63-1.14.62-3.6.06-4.58.2-.99.13-1.36.34-2.18 1.5-.82 1.16-1.8 1.42-3.33 1.5 0 0 .89.52 1 1.02.1.5-.16 1.05-.16 1.05s-.27.39.29.44c.55.05.62.07.62.07l.51-.26.72.04s1.45-.95 3.24-.31c1.8.64 1 1.26 4 .98 0 0 .02.38-1.78.4 0 0 .62.36 2.75-.3 0 0 .03 1.27-3.54 1.44 0 0 1.3.69 3.08-.52 0 0-.06.98-1.2 1.28-1.16.3-2.34.86-4.91.04 0 0 .9.86 3.4.51 0 0-1.1.92-3.4.48-2.3-.43-2.7-2.32-2.7-2.32s-.2-.19-.42-.23c-.22-.05-.22-.5-.22-.5s.19-.24-.43-.31c-.63-.08-.4.37-.5.42 0 0-.65 2.14 4.41 3.67 0 0-3.3.72-6.3-2.92 0 0-.37.77.43 1.18.8.41 1.44.72 1.36 3.12 0 0-.86-1.75-2.4-2.14 0 0-.68-.14-1.64-1.17 0 0-.74 1.04 1.24 2.96 0 0-2.73-.65-3.8-3 0 0-.53-1.11-.77-2.85 0 0-.03-.92-.37-.97 0 0-.56-.12-.65.7 0 0-.39 1.08.62 3.31 0 0-.74-.48-1.57-1.92 0 0-.59-1.05-.45-1.86 0 0 .27-.5.09-.6 0 0-.26.19-.66-.1l-.48-.27-5.22-1.18s-.64-.42.14-.47l4.71 1.12.45.04.3-.27.45-.04-.03-.22s-.12-.5.84.11z"
          fill="{COLOR}" stroke="#000" stroke-width="0.8"/>
</svg>
